<svg width="700" height="600" xmlns="http://www.w3.org/2000/svg">
 <g>
  <title>Layer 1</title>
  <rect id="svg_3" height="0" width="5" y="128.2" x="948.99998" stroke="#000" fill="#fff"/>
  <path fill="none" stroke="#de4747" stroke-width="50" opacity="undefined" d="m263,25l0,500" id="svg_8"/>
  <path stroke="#de4747" fill="none" stroke-width="10" d="m469.7926,334.01804l180.27737,0.07182l-5.85003,9.02137l-168.50822,-0.21546l-5.91912,-8.87774c0,0 0,0 0,0zm1.23888,-120.0045l177.86843,-0.21546l5.16193,9.25454l-188.2612,0.07182l5.23084,-9.1109zm-17.55342,60.13263l212.83754,-0.21543l-0.27512,9.25454l-212.42478,-0.14362l-0.13765,-8.89549zm213.01373,0.85836c0,61.26724 -47.77726,111.10877 -106.51311,111.10877c-58.71049,0 -106.47884,-49.85053 -106.47884,-111.10877c0,-61.25853 47.777,-111.10005 106.47884,-111.10005c58.73585,-0.00901 106.51311,49.84152 106.51311,111.10005zm-106.50475,-120.00452c-63.39707,0 -114.98704,53.82899 -114.98704,119.99549c0,66.17554 51.58997,120.00452 114.98704,120.00452c63.43159,0 115.01294,-53.82899 115.01294,-120.00452c0,-66.1665 -51.58135,-119.99549 -115.01294,-119.99549zm32.26858,120.00452c0,65.46914 -16.99968,111.10877 -32.26858,111.10877c-15.25163,0 -32.25104,-45.63962 -32.25104,-111.10877c0,-65.48717 16.99103,-111.10005 32.25104,-111.10005c15.26028,-0.00901 32.26858,45.61288 32.26858,111.10005zm-32.26858,-120.00452c-26.48452,0 -40.77652,61.83038 -40.77652,119.99549c0,58.18288 14.292,120.00452 40.77652,120.00452c26.48479,0 40.80269,-61.83063 40.80269,-120.00452c-0.00865,-58.16511 -14.3179,-119.99549 -40.80269,-119.99549zm75.57289,120.00452c0,61.26724 -33.91359,111.10877 -75.57289,111.10877c-41.65066,0 -75.54697,-49.85053 -75.54697,-111.10877c0,-61.25853 33.89632,-111.10005 75.54697,-111.10005c41.6593,-0.00901 75.57289,49.84152 75.57289,111.10005zm-75.57289,-120.00452c-46.34615,0 -84.07243,53.82899 -84.07243,119.99549c0,66.17554 37.72628,120.00452 84.07243,120.00452c46.36342,0 84.08132,-53.82899 84.08132,-120.00452c0,-66.1665 -37.7179,-119.99549 -84.08132,-119.99549z" id="svg_24"/>
  <path transform="rotate(-90 420 277.166)" stroke="#de4747" id="svg_29" d="m186.27274,406.55877l233.72724,-258.78606l233.72724,258.78606" stroke-width="50" fill="none"/>
  <path transform="rotate(48 561.362 30.2391)" stroke="#de4747" stroke-width="4" id="svg_32" d="m540.2346,46.29268l0,-32.1072l42.25414,32.1072l-42.25414,0z" fill="#de4747"/>
  <path transform="rotate(130 563.669 520.239)" stroke="#de4747" stroke-width="4" id="svg_34" d="m542.54229,536.29274l0,-32.1072l42.25415,32.1072l-42.25415,0z" fill="#de4747"/>
 </g>

</svg>